<svg width="32" height="32" viewBox="0 0 32 32" fill="none" xmlns="http://www.w3.org/2000/svg">
  <defs>
    <!-- Gradiente dourado para a balança -->
    <linearGradient id="gold-grad" x1="8" y1="6" x2="24" y2="28" gradientUnits="userSpaceOnUse">
      <stop offset="0%" stop-color="#FBBF24"/>
      <stop offset="50%" stop-color="#F59E0B"/>
      <stop offset="100%" stop-color="#D97706"/>
    </linearGradient>
    <!-- Gradiente de fundo para contraste -->
    <linearGradient id="bg-grad" x1="0" y1="0" x2="32" y2="32" gradientUnits="userSpaceOnUse">
      <stop offset="0%" stop-color="#1E293B"/>
      <stop offset="100%" stop-color="#0F172A"/>
    </linearGradient>
  </defs>
  
  <!-- Fundo circular com borda dourada sutil -->
  <circle cx="16" cy="16" r="15" fill="url(#bg-grad)" stroke="url(#gold-grad)" stroke-width="1.5"/>
  
  <!-- Base da balança -->
  <rect x="15" y="23" width="2" height="4" fill="url(#gold-grad)" rx="0.5"/>
  <rect x="11" y="27" width="10" height="1.5" fill="url(#gold-grad)" rx="0.75"/>
  
  <!-- Haste central -->
  <rect x="15.25" y="8" width="1.5" height="15" fill="url(#gold-grad)" rx="0.5"/>
  
  <!-- Braço horizontal -->
  <rect x="7" y="10.5" width="18" height="1.2" fill="url(#gold-grad)" rx="0.3"/>
  
  <!-- Prato esquerdo -->
  <path d="M7 11.1 L10 16.5 L13 11.1" stroke="url(#gold-grad)" stroke-width="0.75" fill="none" stroke-linejoin="round"/>
  <ellipse cx="10" cy="16.5" rx="2.5" ry="0.5" fill="url(#gold-grad)"/>
  <path d="M7.5 16.5 C7.5 17.5 12.5 17.5 12.5 16.5" stroke="url(#gold-grad)" stroke-width="0.5" fill="none"/>
  
  <!-- Prato direito -->
  <path d="M19 11.1 L22 16.5 L25 11.1" stroke="url(#gold-grad)" stroke-width="0.75" fill="none" stroke-linejoin="round"/>
  <ellipse cx="22" cy="16.5" rx="2.5" ry="0.5" fill="url(#gold-grad)"/>
  <path d="M19.5 16.5 C19.5 17.5 24.5 17.5 24.5 16.5" stroke="url(#gold-grad)" stroke-width="0.5" fill="none"/>
  
  <!-- Detalhe superior da haste -->
  <circle cx="16" cy="7.5" r="1" fill="url(#gold-grad)"/>
</svg>